<?xml version="1.0" encoding="utf-8"?>
<!-- Uploaded to: SVG Repo, www.svgrepo.com, Generator: SVG Repo Mixer Tools -->
<svg fill="#000000" width="800px" height="800px" viewBox="0 0 32 32" version="1.1" xmlns="http://www.w3.org/2000/svg">
<title>two-dragons</title>
<path d="M10.468 1.972l0-0h-0zM14.396 12.625l-0-0-0 0zM30.805 22.974c-8.753-3.457-7.031-7.694-16.409-10.349 2.51 1.74 3.993 3.436 4.714 4.996-5.103-1.98-10.263-2.125-14.292 0.55 2.637-6.375 10.819-8.805 14.108-7.345-0.102 0.294-0.226 0.579-0.369 0.852l9.583 1.922c0.13-0.337 0.25-0.675 0.361-1.014l0.020 0.008c0.632-1.080 0.53-2.005 0.005-2.987-0.073 0.732-0.376 1.369-0.921 2.098-1.623 0.182-3.104-0.961-3.331-2.588-0.231-1.655 0.924-3.183 2.578-3.413 0.517-0.072 1.022-0.008 1.479 0.163 0.452 1.015 0.636 1.801 0.501 2.629 0.634-0.676 0.973-1.39 0.88-2.306 0.067-0.814 0.112-1.631 0.142-2.45-9.309 1.383-9.936-4.156-19.385-1.767 3.579 0.296 5.9 1.426 7.255 2.897-1.5-0.32-3.088-0.439-4.705-0.364l-0 0c-4.084 0.188-8.307 1.616-11.625 4.154v22.014h4.321c1.534-7.75 9.366-9.466 12.767-7.694-0.399 0.466-0.883 0.876-1.428 1.221l7.338 6.456c0.284-0.229 0.559-0.464 0.827-0.704l0.010 0.012c1.087-0.619 1.461-1.471 1.497-2.584-0.432 0.601-1.017 1.002-1.86 1.362-1.489-0.657-2.196-2.383-1.58-3.902 0.628-1.548 2.391-2.294 3.94-1.667 0.485 0.197 0.891 0.505 1.201 0.883-0.117 1.099-0.35 1.868-0.879 2.515 0.881-0.267 1.53-0.712 1.908-1.542 0.467-0.673 0.915-1.36 1.351-2.056zM20.415 4.392c0.538-0.075 1.035 0.301 1.11 0.839s-0.301 1.035-0.839 1.11c-0.026 0.004-0.053 0.005-0.079 0.007-0.030 0.002-0.060 0.002-0.089 0.001-0.002-0-0.004 0-0.007-0-0.028-0.001-0.056-0.004-0.083-0.007-0.004-0-0.007-0.001-0.011-0.001-0.026-0.004-0.052-0.008-0.078-0.014-0.005-0.001-0.009-0.002-0.014-0.003-0.024-0.006-0.049-0.013-0.072-0.020-0.006-0.002-0.012-0.004-0.017-0.006-0.023-0.008-0.045-0.016-0.067-0.025-0.007-0.003-0.013-0.006-0.020-0.009-0.021-0.009-0.041-0.019-0.061-0.030-0.007-0.004-0.015-0.008-0.022-0.012-0.019-0.011-0.037-0.022-0.055-0.033-0.008-0.005-0.016-0.011-0.024-0.016-0.017-0.012-0.033-0.024-0.049-0.036-0.009-0.007-0.017-0.014-0.025-0.021-0.015-0.012-0.029-0.025-0.043-0.038-0.009-0.008-0.017-0.017-0.025-0.026-0.013-0.013-0.025-0.026-0.037-0.040-0.009-0.010-0.017-0.020-0.025-0.031-0.011-0.013-0.022-0.027-0.032-0.041-0.008-0.012-0.016-0.024-0.024-0.036-0.009-0.014-0.018-0.027-0.026-0.042s-0.015-0.027-0.022-0.041c-0.007-0.014-0.015-0.027-0.021-0.042-0.007-0.015-0.013-0.031-0.019-0.047-0.005-0.014-0.011-0.027-0.016-0.041-0.006-0.018-0.011-0.036-0.016-0.055-0.004-0.013-0.008-0.025-0.011-0.038-0.006-0.025-0.011-0.051-0.015-0.077-0.001-0.007-0.003-0.013-0.004-0.020-0-0.001-0-0.003-0-0.004-0.003-0.024-0.005-0.048-0.006-0.073-0.001-0.015-0.002-0.030-0.002-0.045 0 0-0 0-0 0-0.008-0.49 0.35-0.92 0.847-0.989zM22.847 20.102c-0.204 0.504-0.778 0.746-1.282 0.542s-0.746-0.778-0.542-1.282c0.204-0.504 0.778-0.746 1.282-0.542s0.746 0.778 0.542 1.282z"></path>
</svg>